<mxfile host="app.diagrams.net" modified="2024-05-29T02:26:05.349Z" agent="Mozilla/5.0 (Windows NT 10.0; Win64; x64) AppleWebKit/537.36 (KHTML, like Gecko) Chrome/123.0.0.0 Safari/537.36" etag="oo7Uyl42qBX1Xnk_YwxI" version="24.4.9" type="google" pages="3">
  <diagram name="會員登入循序圖" id="N6cW0Ea2X5RUlEAwPuuk">
    <mxGraphModel grid="1" page="1" gridSize="10" guides="1" tooltips="1" connect="1" arrows="1" fold="1" pageScale="1" pageWidth="1100" pageHeight="850" background="none" math="0" shadow="0">
      <root>
        <mxCell id="BSZZwutlIpp1AhKQ46wx-0" />
        <mxCell id="BSZZwutlIpp1AhKQ46wx-1" parent="BSZZwutlIpp1AhKQ46wx-0" />
        <mxCell id="BSZZwutlIpp1AhKQ46wx-23" value="：Backend" style="shape=umlLifeline;perimeter=lifelinePerimeter;whiteSpace=wrap;html=1;container=0;dropTarget=0;collapsible=0;recursiveResize=0;outlineConnect=0;portConstraint=eastwest;newEdgeStyle={&quot;edgeStyle&quot;:&quot;elbowEdgeStyle&quot;,&quot;elbow&quot;:&quot;vertical&quot;,&quot;curved&quot;:0,&quot;rounded&quot;:0};rounded=1;" vertex="1" parent="BSZZwutlIpp1AhKQ46wx-1">
          <mxGeometry x="-422.97" y="947.5" width="100" height="1102.5" as="geometry" />
        </mxCell>
        <mxCell id="BSZZwutlIpp1AhKQ46wx-2" value="：UI" style="shape=umlLifeline;perimeter=lifelinePerimeter;whiteSpace=wrap;html=1;container=0;dropTarget=0;collapsible=0;recursiveResize=0;outlineConnect=0;portConstraint=eastwest;newEdgeStyle={&quot;edgeStyle&quot;:&quot;elbowEdgeStyle&quot;,&quot;elbow&quot;:&quot;vertical&quot;,&quot;curved&quot;:0,&quot;rounded&quot;:0};rounded=1;" vertex="1" parent="BSZZwutlIpp1AhKQ46wx-1">
          <mxGeometry x="-583.94" y="947.5" width="100" height="1102.5" as="geometry" />
        </mxCell>
        <mxCell id="BSZZwutlIpp1AhKQ46wx-3" value="" style="html=1;points=[];perimeter=orthogonalPerimeter;outlineConnect=0;targetShapes=umlLifeline;portConstraint=eastwest;newEdgeStyle={&quot;edgeStyle&quot;:&quot;elbowEdgeStyle&quot;,&quot;elbow&quot;:&quot;vertical&quot;,&quot;curved&quot;:0,&quot;rounded&quot;:0};" vertex="1" parent="BSZZwutlIpp1AhKQ46wx-2">
          <mxGeometry x="45" y="80" width="10" height="50" as="geometry" />
        </mxCell>
        <mxCell id="BSZZwutlIpp1AhKQ46wx-4" value="" style="html=1;points=[[0,0,0,0,5],[0,1,0,0,-5],[1,0,0,0,5],[1,1,0,0,-5]];perimeter=orthogonalPerimeter;outlineConnect=0;targetShapes=umlLifeline;portConstraint=eastwest;newEdgeStyle={&quot;curved&quot;:0,&quot;rounded&quot;:0};" vertex="1" parent="BSZZwutlIpp1AhKQ46wx-2">
          <mxGeometry x="45" y="150" width="10" height="40" as="geometry" />
        </mxCell>
        <mxCell id="v35NYvVmezV_Di67Om_d-0" value="" style="html=1;points=[[0,0,0,0,5],[0,1,0,0,-5],[1,0,0,0,5],[1,1,0,0,-5]];perimeter=orthogonalPerimeter;outlineConnect=0;targetShapes=umlLifeline;portConstraint=eastwest;newEdgeStyle={&quot;curved&quot;:0,&quot;rounded&quot;:0};" vertex="1" parent="BSZZwutlIpp1AhKQ46wx-2">
          <mxGeometry x="45" y="206.5" width="10" height="40" as="geometry" />
        </mxCell>
        <mxCell id="BSZZwutlIpp1AhKQ46wx-8" value="進入系統()" style="html=1;verticalAlign=bottom;endArrow=block;edgeStyle=elbowEdgeStyle;elbow=vertical;curved=0;rounded=0;" edge="1" parent="BSZZwutlIpp1AhKQ46wx-1" target="BSZZwutlIpp1AhKQ46wx-3">
          <mxGeometry relative="1" as="geometry">
            <mxPoint x="-689.4200000000003" y="1037" as="sourcePoint" />
            <Array as="points">
              <mxPoint x="-624.4200000000001" y="1037" />
            </Array>
            <mxPoint x="-499.4200000000001" y="1037" as="targetPoint" />
          </mxGeometry>
        </mxCell>
        <mxCell id="BSZZwutlIpp1AhKQ46wx-10" value="：使用者" style="shape=umlActor;verticalLabelPosition=bottom;verticalAlign=top;html=1;" vertex="1" parent="BSZZwutlIpp1AhKQ46wx-1">
          <mxGeometry x="-709.4200000000001" y="927" width="30" height="60" as="geometry" />
        </mxCell>
        <mxCell id="BSZZwutlIpp1AhKQ46wx-11" value="顯示會員登入頁面" style="html=1;verticalAlign=bottom;endArrow=none;edgeStyle=elbowEdgeStyle;elbow=horizontal;curved=0;rounded=0;startArrow=open;startFill=0;endFill=0;dashed=1;" edge="1" parent="BSZZwutlIpp1AhKQ46wx-1" target="BSZZwutlIpp1AhKQ46wx-3">
          <mxGeometry relative="1" as="geometry">
            <mxPoint x="-689.4200000000003" y="1067" as="sourcePoint" />
            <Array as="points">
              <mxPoint x="-624.4200000000001" y="1067" />
            </Array>
            <mxPoint x="-499.4200000000001" y="1067" as="targetPoint" />
            <mxPoint as="offset" />
          </mxGeometry>
        </mxCell>
        <mxCell id="BSZZwutlIpp1AhKQ46wx-14" value="&amp;nbsp;[驗證成功]" style="text;html=1;strokeColor=none;fillColor=none;align=left;verticalAlign=middle;whiteSpace=wrap;rounded=0;" vertex="1" parent="BSZZwutlIpp1AhKQ46wx-1">
          <mxGeometry x="-793.97" y="1170" width="120" height="30" as="geometry" />
        </mxCell>
        <mxCell id="BSZZwutlIpp1AhKQ46wx-15" value="&amp;nbsp;[帳號驗證失敗]" style="text;html=1;strokeColor=none;fillColor=none;align=left;verticalAlign=middle;whiteSpace=wrap;rounded=0;" vertex="1" parent="BSZZwutlIpp1AhKQ46wx-1">
          <mxGeometry x="-793.97" y="1264" width="120" height="30" as="geometry" />
        </mxCell>
        <mxCell id="BSZZwutlIpp1AhKQ46wx-16" value="alt" style="shape=umlFrame;whiteSpace=wrap;html=1;pointerEvents=0;width=40;height=30;" vertex="1" parent="BSZZwutlIpp1AhKQ46wx-1">
          <mxGeometry x="-796.45" y="1142" width="589.45" height="192" as="geometry" />
        </mxCell>
        <mxCell id="BSZZwutlIpp1AhKQ46wx-28" value="輸入帳號密碼(帳號密碼)" style="html=1;verticalAlign=bottom;endArrow=block;edgeStyle=elbowEdgeStyle;elbow=horizontal;curved=0;rounded=0;align=right;" edge="1" parent="BSZZwutlIpp1AhKQ46wx-1">
          <mxGeometry x="0.7925" relative="1" as="geometry">
            <mxPoint x="-695.0007407407409" y="1112" as="sourcePoint" />
            <Array as="points">
              <mxPoint x="-624.2700000000001" y="1112" />
            </Array>
            <mxPoint x="-538.7900000000001" y="1112" as="targetPoint" />
            <mxPoint as="offset" />
          </mxGeometry>
        </mxCell>
        <mxCell id="BSZZwutlIpp1AhKQ46wx-30" value="驗證失敗" style="html=1;verticalAlign=bottom;endArrow=none;edgeStyle=elbowEdgeStyle;elbow=vertical;curved=0;rounded=0;startArrow=open;startFill=0;endFill=0;dashed=1;" edge="1" parent="BSZZwutlIpp1AhKQ46wx-1">
          <mxGeometry x="0.0079" relative="1" as="geometry">
            <mxPoint x="-527.9400000000003" y="1263.26" as="sourcePoint" />
            <Array as="points">
              <mxPoint x="-462.94000000000005" y="1263.26" />
            </Array>
            <mxPoint x="-377.46000000000004" y="1263.26" as="targetPoint" />
            <mxPoint as="offset" />
          </mxGeometry>
        </mxCell>
        <mxCell id="BSZZwutlIpp1AhKQ46wx-24" value="" style="html=1;points=[];perimeter=orthogonalPerimeter;outlineConnect=0;targetShapes=umlLifeline;portConstraint=eastwest;newEdgeStyle={&quot;edgeStyle&quot;:&quot;elbowEdgeStyle&quot;,&quot;elbow&quot;:&quot;vertical&quot;,&quot;curved&quot;:0,&quot;rounded&quot;:0};" vertex="1" parent="BSZZwutlIpp1AhKQ46wx-1">
          <mxGeometry x="-377.97" y="1112" width="10" height="168" as="geometry" />
        </mxCell>
        <mxCell id="Tkp734sxcBkVjIVRbXHU-0" value="" style="endArrow=none;html=1;rounded=0;dashed=1;dashPattern=1 4;" edge="1" parent="BSZZwutlIpp1AhKQ46wx-1">
          <mxGeometry width="50" height="50" relative="1" as="geometry">
            <mxPoint x="-207" y="1217" as="sourcePoint" />
            <mxPoint x="-796.45" y="1217.38" as="targetPoint" />
          </mxGeometry>
        </mxCell>
        <mxCell id="Tkp734sxcBkVjIVRbXHU-1" value="驗證成功" style="html=1;verticalAlign=bottom;endArrow=none;edgeStyle=elbowEdgeStyle;elbow=vertical;curved=0;rounded=0;startArrow=open;startFill=0;endFill=0;dashed=1;" edge="1" parent="BSZZwutlIpp1AhKQ46wx-1">
          <mxGeometry x="0.0042" relative="1" as="geometry">
            <mxPoint x="-527.9400000000003" y="1162" as="sourcePoint" />
            <Array as="points">
              <mxPoint x="-462.94000000000005" y="1162" />
            </Array>
            <mxPoint x="-377.46000000000004" y="1162" as="targetPoint" />
            <mxPoint as="offset" />
          </mxGeometry>
        </mxCell>
        <mxCell id="Tkp734sxcBkVjIVRbXHU-7" value="顯示主畫面" style="html=1;verticalAlign=bottom;endArrow=none;edgeStyle=elbowEdgeStyle;elbow=vertical;curved=0;rounded=0;startArrow=open;startFill=0;endFill=0;dashed=1;" edge="1" parent="BSZZwutlIpp1AhKQ46wx-1">
          <mxGeometry x="0.0042" relative="1" as="geometry">
            <mxPoint x="-689.4200000000002" y="1180" as="sourcePoint" />
            <Array as="points">
              <mxPoint x="-624.42" y="1180" />
            </Array>
            <mxPoint x="-538.94" y="1180" as="targetPoint" />
            <mxPoint as="offset" />
          </mxGeometry>
        </mxCell>
        <mxCell id="BSZZwutlIpp1AhKQ46wx-43" value="要求重新輸入帳號密碼" style="html=1;verticalAlign=bottom;endArrow=none;edgeStyle=elbowEdgeStyle;elbow=vertical;curved=0;rounded=0;startArrow=open;startFill=0;endFill=0;dashed=1;" edge="1" parent="BSZZwutlIpp1AhKQ46wx-1">
          <mxGeometry relative="1" as="geometry">
            <mxPoint x="-689.9000000000003" y="1280" as="sourcePoint" />
            <Array as="points">
              <mxPoint x="-624.9000000000001" y="1280" />
            </Array>
            <mxPoint x="-539.4200000000001" y="1280" as="targetPoint" />
            <mxPoint as="offset" />
          </mxGeometry>
        </mxCell>
        <mxCell id="unDas3XW-_ihqUgOw86k-0" value="" style="endArrow=none;dashed=1;html=1;rounded=0;" edge="1" parent="BSZZwutlIpp1AhKQ46wx-1">
          <mxGeometry width="50" height="50" relative="1" as="geometry">
            <mxPoint x="-694" y="2050" as="sourcePoint" />
            <mxPoint x="-694.4200000000001" y="1012" as="targetPoint" />
          </mxGeometry>
        </mxCell>
        <mxCell id="Tkp734sxcBkVjIVRbXHU-4" value="" style="html=1;points=[];perimeter=orthogonalPerimeter;outlineConnect=0;targetShapes=umlLifeline;portConstraint=eastwest;newEdgeStyle={&quot;edgeStyle&quot;:&quot;elbowEdgeStyle&quot;,&quot;elbow&quot;:&quot;vertical&quot;,&quot;curved&quot;:0,&quot;rounded&quot;:0};" vertex="1" parent="BSZZwutlIpp1AhKQ46wx-1">
          <mxGeometry x="-699.42" y="1032.5" width="10" height="967.5" as="geometry" />
        </mxCell>
        <mxCell id="svfmaPmnU7NDdnJViqaY-0" value="alt" style="shape=umlFrame;whiteSpace=wrap;html=1;pointerEvents=0;width=40;height=30;" vertex="1" parent="BSZZwutlIpp1AhKQ46wx-1">
          <mxGeometry x="-907" y="1092" width="740" height="938" as="geometry" />
        </mxCell>
        <mxCell id="svfmaPmnU7NDdnJViqaY-1" value="" style="endArrow=none;html=1;rounded=0;dashed=1;dashPattern=1 4;exitX=0.997;exitY=0.349;exitDx=0;exitDy=0;exitPerimeter=0;" edge="1" parent="BSZZwutlIpp1AhKQ46wx-1">
          <mxGeometry width="50" height="50" relative="1" as="geometry">
            <mxPoint x="-169.22000000000025" y="1362.3619999999999" as="sourcePoint" />
            <mxPoint x="-907" y="1359.38" as="targetPoint" />
          </mxGeometry>
        </mxCell>
        <mxCell id="svfmaPmnU7NDdnJViqaY-2" value="&lt;font style=&quot;font-size: 15px;&quot;&gt;[登入]&lt;/font&gt;" style="text;html=1;align=center;verticalAlign=middle;resizable=0;points=[];autosize=1;strokeColor=none;fillColor=none;" vertex="1" parent="BSZZwutlIpp1AhKQ46wx-1">
          <mxGeometry x="-907" y="1134" width="60" height="30" as="geometry" />
        </mxCell>
        <mxCell id="svfmaPmnU7NDdnJViqaY-3" value="&lt;font style=&quot;font-size: 15px;&quot;&gt;[忘記密碼]&lt;/font&gt;" style="text;html=1;align=center;verticalAlign=middle;resizable=0;points=[];autosize=1;strokeColor=none;fillColor=none;" vertex="1" parent="BSZZwutlIpp1AhKQ46wx-1">
          <mxGeometry x="-907" y="1370" width="90" height="30" as="geometry" />
        </mxCell>
        <mxCell id="Vr0sUADkZO_sC99XXl39-1" value="按下忘記密碼按鈕()" style="html=1;verticalAlign=bottom;endArrow=block;edgeStyle=elbowEdgeStyle;elbow=vertical;curved=0;rounded=0;" edge="1" parent="BSZZwutlIpp1AhKQ46wx-1">
          <mxGeometry x="-0.0015" relative="1" as="geometry">
            <mxPoint x="-689.42" y="1396.5" as="sourcePoint" />
            <Array as="points">
              <mxPoint x="-618.42" y="1396" />
            </Array>
            <mxPoint x="-537" y="1396" as="targetPoint" />
            <mxPoint as="offset" />
          </mxGeometry>
        </mxCell>
        <mxCell id="Vr0sUADkZO_sC99XXl39-2" value="" style="html=1;points=[[0,0,0,0,5],[0,1,0,0,-5],[1,0,0,0,5],[1,1,0,0,-5]];perimeter=orthogonalPerimeter;outlineConnect=0;targetShapes=umlLifeline;portConstraint=eastwest;newEdgeStyle={&quot;curved&quot;:0,&quot;rounded&quot;:0};" vertex="1" parent="BSZZwutlIpp1AhKQ46wx-1">
          <mxGeometry x="-538.94" y="1386" width="10" height="60" as="geometry" />
        </mxCell>
        <mxCell id="a6TbLZLU91EQVXwNfQEj-0" value="顯示忘記密碼頁面" style="html=1;verticalAlign=bottom;endArrow=none;edgeStyle=elbowEdgeStyle;elbow=horizontal;curved=0;rounded=0;startArrow=open;startFill=0;endFill=0;dashed=1;" edge="1" parent="BSZZwutlIpp1AhKQ46wx-1">
          <mxGeometry relative="1" as="geometry">
            <mxPoint x="-689.4200000000003" y="1435.41" as="sourcePoint" />
            <Array as="points">
              <mxPoint x="-624.4200000000001" y="1435.41" />
            </Array>
            <mxPoint x="-539" y="1435.41" as="targetPoint" />
            <mxPoint as="offset" />
          </mxGeometry>
        </mxCell>
        <mxCell id="a6TbLZLU91EQVXwNfQEj-1" value="" style="html=1;points=[];perimeter=orthogonalPerimeter;outlineConnect=0;targetShapes=umlLifeline;portConstraint=eastwest;newEdgeStyle={&quot;edgeStyle&quot;:&quot;elbowEdgeStyle&quot;,&quot;elbow&quot;:&quot;vertical&quot;,&quot;curved&quot;:0,&quot;rounded&quot;:0};" vertex="1" parent="BSZZwutlIpp1AhKQ46wx-1">
          <mxGeometry x="-377.97" y="1486" width="10" height="430" as="geometry" />
        </mxCell>
        <mxCell id="pjs_Fzu2aAlTroLgfdEO-5" value="&amp;nbsp;[信箱不存在]" style="text;html=1;strokeColor=none;fillColor=none;align=left;verticalAlign=middle;whiteSpace=wrap;rounded=0;" vertex="1" parent="BSZZwutlIpp1AhKQ46wx-1">
          <mxGeometry x="-816.45" y="1855" width="80" height="30" as="geometry" />
        </mxCell>
        <mxCell id="BSZZwutlIpp1AhKQ46wx-5" value="" style="html=1;points=[[0,0,0,0,5],[0,1,0,0,-5],[1,0,0,0,5],[1,1,0,0,-5]];perimeter=orthogonalPerimeter;outlineConnect=0;targetShapes=umlLifeline;portConstraint=eastwest;newEdgeStyle={&quot;curved&quot;:0,&quot;rounded&quot;:0};" vertex="1" parent="BSZZwutlIpp1AhKQ46wx-1">
          <mxGeometry x="-539.42" y="1258.75" width="10" height="31.25" as="geometry" />
        </mxCell>
        <mxCell id="pjs_Fzu2aAlTroLgfdEO-1" value="" style="html=1;points=[[0,0,0,0,5],[0,1,0,0,-5],[1,0,0,0,5],[1,1,0,0,-5]];perimeter=orthogonalPerimeter;outlineConnect=0;targetShapes=umlLifeline;portConstraint=eastwest;newEdgeStyle={&quot;curved&quot;:0,&quot;rounded&quot;:0};" vertex="1" parent="BSZZwutlIpp1AhKQ46wx-1">
          <mxGeometry x="-538.22" y="1680" width="10" height="225" as="geometry" />
        </mxCell>
        <mxCell id="pjs_Fzu2aAlTroLgfdEO-2" value="" style="html=1;points=[[0,0,0,0,5],[0,1,0,0,-5],[1,0,0,0,5],[1,1,0,0,-5]];perimeter=orthogonalPerimeter;outlineConnect=0;targetShapes=umlLifeline;portConstraint=eastwest;newEdgeStyle={&quot;curved&quot;:0,&quot;rounded&quot;:0};" vertex="1" parent="BSZZwutlIpp1AhKQ46wx-1">
          <mxGeometry x="-537.94" y="1476" width="10" height="39.5" as="geometry" />
        </mxCell>
        <mxCell id="pjs_Fzu2aAlTroLgfdEO-3" value="" style="endArrow=none;html=1;rounded=0;dashed=1;dashPattern=1 4;entryX=-0.001;entryY=0.502;entryDx=0;entryDy=0;entryPerimeter=0;movable=1;resizable=1;rotatable=1;deletable=1;editable=1;locked=0;connectable=1;" edge="1" parent="BSZZwutlIpp1AhKQ46wx-1">
          <mxGeometry width="50" height="50" relative="1" as="geometry">
            <mxPoint x="-208" y="1850" as="sourcePoint" />
            <mxPoint x="-816.99548" y="1848.2659999999998" as="targetPoint" />
          </mxGeometry>
        </mxCell>
        <mxCell id="pjs_Fzu2aAlTroLgfdEO-4" value="&amp;nbsp;[信箱存在]" style="text;html=1;strokeColor=none;fillColor=none;align=left;verticalAlign=middle;whiteSpace=wrap;rounded=0;" vertex="1" parent="BSZZwutlIpp1AhKQ46wx-1">
          <mxGeometry x="-816.45" y="1553.5" width="120" height="30" as="geometry" />
        </mxCell>
        <mxCell id="pjs_Fzu2aAlTroLgfdEO-6" value="alt" style="shape=umlFrame;whiteSpace=wrap;html=1;pointerEvents=0;width=40;height=30;" vertex="1" parent="BSZZwutlIpp1AhKQ46wx-1">
          <mxGeometry x="-816.45" y="1522.5" width="609.45" height="433.5" as="geometry" />
        </mxCell>
        <mxCell id="pjs_Fzu2aAlTroLgfdEO-7" value="" style="endArrow=none;html=1;rounded=0;dashed=1;dashPattern=1 4;entryX=-0.004;entryY=0.563;entryDx=0;entryDy=0;entryPerimeter=0;" edge="1" parent="BSZZwutlIpp1AhKQ46wx-1" target="pjs_Fzu2aAlTroLgfdEO-10">
          <mxGeometry width="50" height="50" relative="1" as="geometry">
            <mxPoint x="-227" y="1732" as="sourcePoint" />
            <mxPoint x="-817.3700000000001" y="1742.0600000000004" as="targetPoint" />
          </mxGeometry>
        </mxCell>
        <mxCell id="pjs_Fzu2aAlTroLgfdEO-8" value="&amp;nbsp;[驗證成功]" style="text;html=1;strokeColor=none;fillColor=none;align=left;verticalAlign=middle;whiteSpace=wrap;rounded=0;" vertex="1" parent="BSZZwutlIpp1AhKQ46wx-1">
          <mxGeometry x="-789.9000000000001" y="1654.5" width="120" height="30" as="geometry" />
        </mxCell>
        <mxCell id="pjs_Fzu2aAlTroLgfdEO-9" value="&amp;nbsp;[驗證失敗]" style="text;html=1;strokeColor=none;fillColor=none;align=left;verticalAlign=middle;whiteSpace=wrap;rounded=0;" vertex="1" parent="BSZZwutlIpp1AhKQ46wx-1">
          <mxGeometry x="-789.9000000000001" y="1734.5" width="120" height="30" as="geometry" />
        </mxCell>
        <mxCell id="pjs_Fzu2aAlTroLgfdEO-10" value="alt" style="shape=umlFrame;whiteSpace=wrap;html=1;pointerEvents=0;width=40;height=30;" vertex="1" parent="BSZZwutlIpp1AhKQ46wx-1">
          <mxGeometry x="-789.9" y="1628.5" width="562.9" height="184.5" as="geometry" />
        </mxCell>
        <mxCell id="pjs_Fzu2aAlTroLgfdEO-11" value="顯示密碼修改成功頁面" style="html=1;verticalAlign=bottom;endArrow=none;edgeStyle=elbowEdgeStyle;elbow=vertical;curved=0;rounded=0;startArrow=open;startFill=0;endFill=0;dashed=1;" edge="1" parent="BSZZwutlIpp1AhKQ46wx-1">
          <mxGeometry relative="1" as="geometry">
            <mxPoint x="-687" y="1720" as="sourcePoint" />
            <Array as="points">
              <mxPoint x="-538" y="1719.5" />
            </Array>
            <mxPoint x="-538.22" y="1719.5" as="targetPoint" />
            <mxPoint as="offset" />
          </mxGeometry>
        </mxCell>
        <mxCell id="pjs_Fzu2aAlTroLgfdEO-12" value="要求重新輸入會員信箱" style="html=1;verticalAlign=bottom;endArrow=none;edgeStyle=elbowEdgeStyle;elbow=vertical;curved=0;rounded=0;startArrow=open;startFill=0;endFill=0;dashed=1;" edge="1" parent="BSZZwutlIpp1AhKQ46wx-1">
          <mxGeometry relative="1" as="geometry">
            <mxPoint x="-689.4200000000003" y="1895.77" as="sourcePoint" />
            <Array as="points" />
            <mxPoint x="-537" y="1895" as="targetPoint" />
            <mxPoint as="offset" />
          </mxGeometry>
        </mxCell>
        <mxCell id="pjs_Fzu2aAlTroLgfdEO-13" value="信箱存在" style="html=1;verticalAlign=bottom;endArrow=none;edgeStyle=elbowEdgeStyle;elbow=vertical;curved=0;rounded=0;startArrow=open;startFill=0;endFill=0;dashed=1;" edge="1" parent="BSZZwutlIpp1AhKQ46wx-1">
          <mxGeometry x="0.0042" relative="1" as="geometry">
            <mxPoint x="-527.51" y="1546" as="sourcePoint" />
            <Array as="points">
              <mxPoint x="-463.45000000000005" y="1546" />
            </Array>
            <mxPoint x="-377.97" y="1546" as="targetPoint" />
            <mxPoint as="offset" />
          </mxGeometry>
        </mxCell>
        <mxCell id="pjs_Fzu2aAlTroLgfdEO-14" value="要求輸入更改密碼" style="html=1;verticalAlign=bottom;endArrow=none;edgeStyle=elbowEdgeStyle;elbow=horizontal;curved=0;rounded=0;startArrow=open;startFill=0;endFill=0;dashed=1;" edge="1" parent="BSZZwutlIpp1AhKQ46wx-1">
          <mxGeometry relative="1" as="geometry">
            <mxPoint x="-689.4200000000001" y="1553.5" as="sourcePoint" />
            <Array as="points">
              <mxPoint x="-549.42" y="1553.5" />
            </Array>
            <mxPoint x="-539.42" y="1553.5" as="targetPoint" />
            <mxPoint as="offset" />
          </mxGeometry>
        </mxCell>
        <mxCell id="pjs_Fzu2aAlTroLgfdEO-15" value="輸入會員信箱(電子信箱)" style="html=1;verticalAlign=bottom;endArrow=block;edgeStyle=elbowEdgeStyle;elbow=vertical;curved=0;rounded=0;" edge="1" parent="BSZZwutlIpp1AhKQ46wx-1">
          <mxGeometry x="-0.0001" relative="1" as="geometry">
            <mxPoint x="-687" y="1482" as="sourcePoint" />
            <Array as="points" />
            <mxPoint x="-538.52" y="1481.5" as="targetPoint" />
            <mxPoint as="offset" />
          </mxGeometry>
        </mxCell>
        <mxCell id="pjs_Fzu2aAlTroLgfdEO-19" value="驗證成功" style="html=1;verticalAlign=bottom;endArrow=none;edgeStyle=elbowEdgeStyle;elbow=horizontal;curved=0;rounded=0;startArrow=open;startFill=0;endFill=0;dashed=1;" edge="1" parent="BSZZwutlIpp1AhKQ46wx-1">
          <mxGeometry x="0.0042" relative="1" as="geometry">
            <mxPoint x="-528.9400000000003" y="1701" as="sourcePoint" />
            <Array as="points">
              <mxPoint x="-463.94000000000005" y="1701" />
            </Array>
            <mxPoint x="-378.46000000000004" y="1701" as="targetPoint" />
            <mxPoint as="offset" />
          </mxGeometry>
        </mxCell>
        <mxCell id="pjs_Fzu2aAlTroLgfdEO-21" value="驗證失敗" style="html=1;verticalAlign=bottom;endArrow=none;edgeStyle=elbowEdgeStyle;elbow=horizontal;curved=0;rounded=0;startArrow=open;startFill=0;endFill=0;dashed=1;" edge="1" parent="BSZZwutlIpp1AhKQ46wx-1">
          <mxGeometry x="0.0007" relative="1" as="geometry">
            <mxPoint x="-527.9400000000003" y="1869.69" as="sourcePoint" />
            <Array as="points">
              <mxPoint x="-462.94000000000005" y="1869.69" />
            </Array>
            <mxPoint x="-377.46000000000004" y="1869.69" as="targetPoint" />
            <mxPoint as="offset" />
          </mxGeometry>
        </mxCell>
        <mxCell id="pjs_Fzu2aAlTroLgfdEO-28" value="查詢會員信箱(電子信箱)" style="html=1;verticalAlign=bottom;endArrow=block;edgeStyle=elbowEdgeStyle;elbow=vertical;curved=0;rounded=0;" edge="1" parent="BSZZwutlIpp1AhKQ46wx-1">
          <mxGeometry x="-0.0015" relative="1" as="geometry">
            <mxPoint x="-527.9400000000003" y="1496" as="sourcePoint" />
            <Array as="points">
              <mxPoint x="-462.94000000000005" y="1496" />
            </Array>
            <mxPoint x="-377.46000000000004" y="1496" as="targetPoint" />
            <mxPoint as="offset" />
          </mxGeometry>
        </mxCell>
        <mxCell id="a6TbLZLU91EQVXwNfQEj-4" value="" style="html=1;points=[[0,0,0,0,5],[0,1,0,0,-5],[1,0,0,0,5],[1,1,0,0,-5]];perimeter=orthogonalPerimeter;outlineConnect=0;targetShapes=umlLifeline;portConstraint=eastwest;newEdgeStyle={&quot;curved&quot;:0,&quot;rounded&quot;:0};" vertex="1" parent="BSZZwutlIpp1AhKQ46wx-1">
          <mxGeometry x="-539.42" y="1531" width="10" height="90" as="geometry" />
        </mxCell>
        <mxCell id="a6TbLZLU91EQVXwNfQEj-5" value="輸入更改密碼(新密碼)" style="html=1;verticalAlign=bottom;endArrow=block;edgeStyle=elbowEdgeStyle;elbow=horizontal;curved=0;rounded=0;align=right;exitX=1.242;exitY=0.614;exitDx=0;exitDy=0;exitPerimeter=0;" edge="1" parent="BSZZwutlIpp1AhKQ46wx-1" target="a6TbLZLU91EQVXwNfQEj-4">
          <mxGeometry x="0.7925" relative="1" as="geometry">
            <mxPoint x="-689.4199999999998" y="1590.9650000000001" as="sourcePoint" />
            <Array as="points">
              <mxPoint x="-627.1700000000001" y="1590.5" />
            </Array>
            <mxPoint x="-541.69" y="1590.5" as="targetPoint" />
            <mxPoint as="offset" />
          </mxGeometry>
        </mxCell>
        <mxCell id="a6TbLZLU91EQVXwNfQEj-6" value="驗證密碼(新密碼)" style="html=1;verticalAlign=bottom;endArrow=block;edgeStyle=elbowEdgeStyle;elbow=vertical;curved=0;rounded=0;" edge="1" parent="BSZZwutlIpp1AhKQ46wx-1">
          <mxGeometry x="-0.0015" relative="1" as="geometry">
            <mxPoint x="-528.9400000000003" y="1596" as="sourcePoint" />
            <Array as="points">
              <mxPoint x="-463.94000000000005" y="1596" />
            </Array>
            <mxPoint x="-378.46000000000004" y="1596" as="targetPoint" />
            <mxPoint as="offset" />
          </mxGeometry>
        </mxCell>
        <mxCell id="a6TbLZLU91EQVXwNfQEj-10" value="驗證帳號密碼(帳號密碼)" style="html=1;verticalAlign=bottom;endArrow=block;curved=0;rounded=0;entryX=0.097;entryY=0.036;entryDx=0;entryDy=0;entryPerimeter=0;" edge="1" parent="BSZZwutlIpp1AhKQ46wx-1" target="BSZZwutlIpp1AhKQ46wx-24">
          <mxGeometry width="80" relative="1" as="geometry">
            <mxPoint x="-528.22" y="1120" as="sourcePoint" />
            <mxPoint x="-448.22" y="1120" as="targetPoint" />
          </mxGeometry>
        </mxCell>
        <mxCell id="WntVIlDuxr-57eL19d1X-0" value="要求重新輸入密碼" style="html=1;verticalAlign=bottom;endArrow=none;edgeStyle=elbowEdgeStyle;elbow=vertical;curved=0;rounded=0;startArrow=open;startFill=0;endFill=0;dashed=1;" edge="1" parent="BSZZwutlIpp1AhKQ46wx-1">
          <mxGeometry relative="1" as="geometry">
            <mxPoint x="-687.22" y="1783.5" as="sourcePoint" />
            <Array as="points">
              <mxPoint x="-538.22" y="1783" />
            </Array>
            <mxPoint x="-538.22" y="1783.5" as="targetPoint" />
            <mxPoint as="offset" />
          </mxGeometry>
        </mxCell>
        <mxCell id="WntVIlDuxr-57eL19d1X-1" value="驗證失敗" style="html=1;verticalAlign=bottom;endArrow=none;edgeStyle=elbowEdgeStyle;elbow=horizontal;curved=0;rounded=0;startArrow=open;startFill=0;endFill=0;dashed=1;" edge="1" parent="BSZZwutlIpp1AhKQ46wx-1">
          <mxGeometry x="0.0042" relative="1" as="geometry">
            <mxPoint x="-528.9400000000003" y="1764.5" as="sourcePoint" />
            <Array as="points">
              <mxPoint x="-463.94000000000005" y="1764.5" />
            </Array>
            <mxPoint x="-378.46000000000004" y="1764.5" as="targetPoint" />
            <mxPoint as="offset" />
          </mxGeometry>
        </mxCell>
        <mxCell id="lwr757-MB25DD_BerLOe-4" value="" style="html=1;points=[[0,0,0,0,5],[0,1,0,0,-5],[1,0,0,0,5],[1,1,0,0,-5]];perimeter=orthogonalPerimeter;outlineConnect=0;targetShapes=umlLifeline;portConstraint=eastwest;newEdgeStyle={&quot;curved&quot;:0,&quot;rounded&quot;:0};" vertex="1" parent="BSZZwutlIpp1AhKQ46wx-1">
          <mxGeometry x="-533.42" y="1424" width="10" height="20" as="geometry" />
        </mxCell>
        <mxCell id="6ua7_WiBmTOLXNuP6gGl-2" value="切換忘記密碼頁面()" style="text;html=1;align=center;verticalAlign=middle;resizable=0;points=[];autosize=1;strokeColor=none;fillColor=none;" vertex="1" parent="BSZZwutlIpp1AhKQ46wx-1">
          <mxGeometry x="-507.97" y="1406" width="130" height="30" as="geometry" />
        </mxCell>
        <mxCell id="6ua7_WiBmTOLXNuP6gGl-1" value="" style="edgeStyle=segmentEdgeStyle;endArrow=classic;html=1;curved=0;rounded=0;endSize=8;startSize=8;sourcePerimeterSpacing=0;targetPerimeterSpacing=0;" edge="1" parent="BSZZwutlIpp1AhKQ46wx-1" source="Vr0sUADkZO_sC99XXl39-2" target="Vr0sUADkZO_sC99XXl39-2">
          <mxGeometry width="100" relative="1" as="geometry">
            <mxPoint x="-527" y="1404" as="sourcePoint" />
            <mxPoint x="-527" y="1431" as="targetPoint" />
            <Array as="points">
              <mxPoint x="-497" y="1404" />
              <mxPoint x="-497" y="1431" />
            </Array>
          </mxGeometry>
        </mxCell>
        <mxCell id="lwr757-MB25DD_BerLOe-10" value="" style="html=1;points=[[0,0,0,0,5],[0,1,0,0,-5],[1,0,0,0,5],[1,1,0,0,-5]];perimeter=orthogonalPerimeter;outlineConnect=0;targetShapes=umlLifeline;portConstraint=eastwest;newEdgeStyle={&quot;curved&quot;:0,&quot;rounded&quot;:0};" vertex="1" parent="BSZZwutlIpp1AhKQ46wx-1">
          <mxGeometry x="-373" y="1656" width="10" height="20" as="geometry" />
        </mxCell>
        <mxCell id="pjs_Fzu2aAlTroLgfdEO-24" value="" style="group" connectable="0" vertex="1" parent="BSZZwutlIpp1AhKQ46wx-1">
          <mxGeometry x="-363" y="1641" width="118" height="25" as="geometry" />
        </mxCell>
        <mxCell id="pjs_Fzu2aAlTroLgfdEO-26" value="" style="endArrow=classic;html=1;rounded=0;" edge="1" parent="pjs_Fzu2aAlTroLgfdEO-24">
          <mxGeometry width="50" height="50" relative="1" as="geometry">
            <mxPoint x="-5.029999999999973" y="2" as="sourcePoint" />
            <mxPoint x="-5.029999999999973" y="22" as="targetPoint" />
            <Array as="points">
              <mxPoint x="21" y="2" />
              <mxPoint x="21" y="12" />
              <mxPoint x="21" y="22" />
              <mxPoint x="11" y="22" />
            </Array>
          </mxGeometry>
        </mxCell>
        <mxCell id="pjs_Fzu2aAlTroLgfdEO-25" value="&lt;span style=&quot;font-size: 11px; background-color: rgb(255, 255, 255);&quot;&gt;新增會員資料()&lt;/span&gt;" style="text;whiteSpace=wrap;html=1;align=center;" vertex="1" parent="pjs_Fzu2aAlTroLgfdEO-24">
          <mxGeometry x="8" width="110" height="25" as="geometry" />
        </mxCell>
        <mxCell id="ei3_UczyooGqmCo60IDm-0" value="&lt;span style=&quot;font-size: 16px; text-wrap: nowrap;&quot;&gt;會員登入循序圖&lt;/span&gt;" style="shape=umlFrame;whiteSpace=wrap;html=1;pointerEvents=0;width=140;height=45;" vertex="1" parent="BSZZwutlIpp1AhKQ46wx-1">
          <mxGeometry x="-967" y="915.5" width="870" height="1154.5" as="geometry" />
        </mxCell>
      </root>
    </mxGraphModel>
  </diagram>
  <diagram name="會員註冊循序圖" id="d03D8ASke_EuJILjUX7z">
    <mxGraphModel grid="1" page="1" gridSize="10" guides="1" tooltips="1" connect="1" arrows="1" fold="1" pageScale="1" pageWidth="1100" pageHeight="850" background="none" math="0" shadow="0">
      <root>
        <mxCell id="zuJS7TScdpKPQM_Z_yAq-0" />
        <mxCell id="zuJS7TScdpKPQM_Z_yAq-1" parent="zuJS7TScdpKPQM_Z_yAq-0" />
        <mxCell id="zuJS7TScdpKPQM_Z_yAq-22" value="：Backend" style="shape=umlLifeline;perimeter=lifelinePerimeter;whiteSpace=wrap;html=1;container=0;dropTarget=0;collapsible=0;recursiveResize=0;outlineConnect=0;portConstraint=eastwest;newEdgeStyle={&quot;edgeStyle&quot;:&quot;elbowEdgeStyle&quot;,&quot;elbow&quot;:&quot;vertical&quot;,&quot;curved&quot;:0,&quot;rounded&quot;:0};rounded=1;" vertex="1" parent="zuJS7TScdpKPQM_Z_yAq-1">
          <mxGeometry x="-545.97" y="935.5" width="100" height="624.5" as="geometry" />
        </mxCell>
        <mxCell id="uHRdurT_IQ5BFclqMRIM-6" value="" style="html=1;points=[[0,0,0,0,5],[0,1,0,0,-5],[1,0,0,0,5],[1,1,0,0,-5]];perimeter=orthogonalPerimeter;outlineConnect=0;targetShapes=umlLifeline;portConstraint=eastwest;newEdgeStyle={&quot;curved&quot;:0,&quot;rounded&quot;:0};" vertex="1" parent="zuJS7TScdpKPQM_Z_yAq-22">
          <mxGeometry x="45" y="184.5" width="10" height="345.5" as="geometry" />
        </mxCell>
        <mxCell id="uHRdurT_IQ5BFclqMRIM-1" value="" style="html=1;points=[[0,0,0,0,5],[0,1,0,0,-5],[1,0,0,0,5],[1,1,0,0,-5]];perimeter=orthogonalPerimeter;outlineConnect=0;targetShapes=umlLifeline;portConstraint=eastwest;newEdgeStyle={&quot;curved&quot;:0,&quot;rounded&quot;:0};" vertex="1" parent="zuJS7TScdpKPQM_Z_yAq-22">
          <mxGeometry x="49.96999999999997" y="351.75" width="10" height="19.5" as="geometry" />
        </mxCell>
        <mxCell id="uHRdurT_IQ5BFclqMRIM-2" value="" style="html=1;points=[[0,0,0,0,5],[0,1,0,0,-5],[1,0,0,0,5],[1,1,0,0,-5]];perimeter=orthogonalPerimeter;outlineConnect=0;targetShapes=umlLifeline;portConstraint=eastwest;newEdgeStyle={&quot;curved&quot;:0,&quot;rounded&quot;:0};" vertex="1" parent="zuJS7TScdpKPQM_Z_yAq-22">
          <mxGeometry x="51" y="430.5" width="10" height="19.5" as="geometry" />
        </mxCell>
        <mxCell id="akf3tHxvWumSpn8Nkf2B-2" value="" style="endArrow=none;dashed=1;html=1;rounded=0;" edge="1" parent="zuJS7TScdpKPQM_Z_yAq-1">
          <mxGeometry width="50" height="50" relative="1" as="geometry">
            <mxPoint x="-818" y="1560" as="sourcePoint" />
            <mxPoint x="-818" y="1000" as="targetPoint" />
          </mxGeometry>
        </mxCell>
        <mxCell id="zuJS7TScdpKPQM_Z_yAq-2" value="：UI" style="shape=umlLifeline;perimeter=lifelinePerimeter;whiteSpace=wrap;html=1;container=0;dropTarget=0;collapsible=0;recursiveResize=0;outlineConnect=0;portConstraint=eastwest;newEdgeStyle={&quot;edgeStyle&quot;:&quot;elbowEdgeStyle&quot;,&quot;elbow&quot;:&quot;vertical&quot;,&quot;curved&quot;:0,&quot;rounded&quot;:0};rounded=1;" vertex="1" parent="zuJS7TScdpKPQM_Z_yAq-1">
          <mxGeometry x="-706.94" y="935.5" width="100" height="624.5" as="geometry" />
        </mxCell>
        <mxCell id="zuJS7TScdpKPQM_Z_yAq-4" value="" style="html=1;points=[[0,0,0,0,5],[0,1,0,0,-5],[1,0,0,0,5],[1,1,0,0,-5]];perimeter=orthogonalPerimeter;outlineConnect=0;targetShapes=umlLifeline;portConstraint=eastwest;newEdgeStyle={&quot;curved&quot;:0,&quot;rounded&quot;:0};" vertex="1" parent="zuJS7TScdpKPQM_Z_yAq-2">
          <mxGeometry x="45" y="82" width="10" height="70" as="geometry" />
        </mxCell>
        <mxCell id="zuJS7TScdpKPQM_Z_yAq-5" value="" style="html=1;points=[[0,0,0,0,5],[0,1,0,0,-5],[1,0,0,0,5],[1,1,0,0,-5]];perimeter=orthogonalPerimeter;outlineConnect=0;targetShapes=umlLifeline;portConstraint=eastwest;newEdgeStyle={&quot;curved&quot;:0,&quot;rounded&quot;:0};" vertex="1" parent="zuJS7TScdpKPQM_Z_yAq-2">
          <mxGeometry x="45" y="271.5" width="10" height="30" as="geometry" />
        </mxCell>
        <mxCell id="zuJS7TScdpKPQM_Z_yAq-6" value="" style="html=1;points=[[0,0,0,0,5],[0,1,0,0,-5],[1,0,0,0,5],[1,1,0,0,-5]];perimeter=orthogonalPerimeter;outlineConnect=0;targetShapes=umlLifeline;portConstraint=eastwest;newEdgeStyle={&quot;curved&quot;:0,&quot;rounded&quot;:0};" vertex="1" parent="zuJS7TScdpKPQM_Z_yAq-2">
          <mxGeometry x="44.72" y="400" width="10" height="145" as="geometry" />
        </mxCell>
        <mxCell id="zuJS7TScdpKPQM_Z_yAq-7" value="" style="html=1;points=[[0,0,0,0,5],[0,1,0,0,-5],[1,0,0,0,5],[1,1,0,0,-5]];perimeter=orthogonalPerimeter;outlineConnect=0;targetShapes=umlLifeline;portConstraint=eastwest;newEdgeStyle={&quot;curved&quot;:0,&quot;rounded&quot;:0};" vertex="1" parent="zuJS7TScdpKPQM_Z_yAq-2">
          <mxGeometry x="45" y="192" width="10" height="39.5" as="geometry" />
        </mxCell>
        <mxCell id="gT3dsHgWZhOLu_yu5-1i-0" value="" style="html=1;points=[[0,0,0,0,5],[0,1,0,0,-5],[1,0,0,0,5],[1,1,0,0,-5]];perimeter=orthogonalPerimeter;outlineConnect=0;targetShapes=umlLifeline;portConstraint=eastwest;newEdgeStyle={&quot;curved&quot;:0,&quot;rounded&quot;:0};" vertex="1" parent="zuJS7TScdpKPQM_Z_yAq-2">
          <mxGeometry x="50" y="120.5" width="10" height="19.5" as="geometry" />
        </mxCell>
        <mxCell id="zuJS7TScdpKPQM_Z_yAq-10" value="：使用者" style="shape=umlActor;verticalLabelPosition=bottom;verticalAlign=top;html=1;" vertex="1" parent="zuJS7TScdpKPQM_Z_yAq-1">
          <mxGeometry x="-832.4200000000001" y="915" width="30" height="60" as="geometry" />
        </mxCell>
        <mxCell id="zuJS7TScdpKPQM_Z_yAq-12" value="" style="endArrow=none;html=1;rounded=0;dashed=1;dashPattern=1 4;entryX=-0.001;entryY=0.502;entryDx=0;entryDy=0;entryPerimeter=0;movable=1;resizable=1;rotatable=1;deletable=1;editable=1;locked=0;connectable=1;exitX=0.999;exitY=0.236;exitDx=0;exitDy=0;exitPerimeter=0;" edge="1" parent="zuJS7TScdpKPQM_Z_yAq-1" source="zuJS7TScdpKPQM_Z_yAq-15">
          <mxGeometry width="50" height="50" relative="1" as="geometry">
            <mxPoint x="-320" y="1258" as="sourcePoint" />
            <mxPoint x="-949.99548" y="1258.2659999999998" as="targetPoint" />
          </mxGeometry>
        </mxCell>
        <mxCell id="zuJS7TScdpKPQM_Z_yAq-13" value="&amp;nbsp;[帳號已存在]" style="text;html=1;strokeColor=none;fillColor=none;align=left;verticalAlign=middle;whiteSpace=wrap;rounded=0;" vertex="1" parent="zuJS7TScdpKPQM_Z_yAq-1">
          <mxGeometry x="-949.45" y="1205" width="120" height="30" as="geometry" />
        </mxCell>
        <mxCell id="zuJS7TScdpKPQM_Z_yAq-14" value="&amp;nbsp;[帳號不存在]" style="text;html=1;strokeColor=none;fillColor=none;align=left;verticalAlign=middle;whiteSpace=wrap;rounded=0;" vertex="1" parent="zuJS7TScdpKPQM_Z_yAq-1">
          <mxGeometry x="-949.45" y="1265" width="120" height="30" as="geometry" />
        </mxCell>
        <mxCell id="zuJS7TScdpKPQM_Z_yAq-15" value="alt" style="shape=umlFrame;whiteSpace=wrap;html=1;pointerEvents=0;width=40;height=30;" vertex="1" parent="zuJS7TScdpKPQM_Z_yAq-1">
          <mxGeometry x="-949.45" y="1174" width="649.45" height="356" as="geometry" />
        </mxCell>
        <mxCell id="zuJS7TScdpKPQM_Z_yAq-16" value="" style="endArrow=none;html=1;rounded=0;dashed=1;dashPattern=1 4;entryX=-0.001;entryY=0.502;entryDx=0;entryDy=0;entryPerimeter=0;exitX=1;exitY=0.501;exitDx=0;exitDy=0;exitPerimeter=0;" edge="1" parent="zuJS7TScdpKPQM_Z_yAq-1" source="zuJS7TScdpKPQM_Z_yAq-19" target="zuJS7TScdpKPQM_Z_yAq-19">
          <mxGeometry width="50" height="50" relative="1" as="geometry">
            <mxPoint x="-188.85000000000002" y="1433.44" as="sourcePoint" />
            <mxPoint x="-950.3700000000001" y="1429.5600000000004" as="targetPoint" />
          </mxGeometry>
        </mxCell>
        <mxCell id="zuJS7TScdpKPQM_Z_yAq-17" value="&amp;nbsp;[驗證成功]" style="text;html=1;strokeColor=none;fillColor=none;align=left;verticalAlign=middle;whiteSpace=wrap;rounded=0;" vertex="1" parent="zuJS7TScdpKPQM_Z_yAq-1">
          <mxGeometry x="-914.9000000000001" y="1342" width="120" height="30" as="geometry" />
        </mxCell>
        <mxCell id="zuJS7TScdpKPQM_Z_yAq-18" value="&amp;nbsp;[驗證失敗]" style="text;html=1;strokeColor=none;fillColor=none;align=left;verticalAlign=middle;whiteSpace=wrap;rounded=0;" vertex="1" parent="zuJS7TScdpKPQM_Z_yAq-1">
          <mxGeometry x="-914.9000000000001" y="1422" width="120" height="30" as="geometry" />
        </mxCell>
        <mxCell id="zuJS7TScdpKPQM_Z_yAq-19" value="alt" style="shape=umlFrame;whiteSpace=wrap;html=1;pointerEvents=0;width=40;height=30;" vertex="1" parent="zuJS7TScdpKPQM_Z_yAq-1">
          <mxGeometry x="-914.9" y="1316" width="594.9" height="204" as="geometry" />
        </mxCell>
        <mxCell id="zuJS7TScdpKPQM_Z_yAq-20" value="顯示註冊成功頁面" style="html=1;verticalAlign=bottom;endArrow=none;edgeStyle=elbowEdgeStyle;elbow=vertical;curved=0;rounded=0;startArrow=open;startFill=0;endFill=0;dashed=1;" edge="1" parent="zuJS7TScdpKPQM_Z_yAq-1" source="akf3tHxvWumSpn8Nkf2B-0">
          <mxGeometry relative="1" as="geometry">
            <mxPoint x="-817.7200000000004" y="1407" as="sourcePoint" />
            <Array as="points">
              <mxPoint x="-663" y="1407" />
            </Array>
            <mxPoint x="-673" y="1407" as="targetPoint" />
            <mxPoint as="offset" />
          </mxGeometry>
        </mxCell>
        <mxCell id="zuJS7TScdpKPQM_Z_yAq-21" value="要求重新輸入會員資料" style="html=1;verticalAlign=bottom;endArrow=none;edgeStyle=elbowEdgeStyle;elbow=vertical;curved=0;rounded=0;startArrow=open;startFill=0;endFill=0;dashed=1;entryX=0;entryY=1;entryDx=0;entryDy=-5;entryPerimeter=0;" edge="1" parent="zuJS7TScdpKPQM_Z_yAq-1" source="akf3tHxvWumSpn8Nkf2B-0">
          <mxGeometry relative="1" as="geometry">
            <mxPoint x="-818.1500000000003" y="1468.27" as="sourcePoint" />
            <Array as="points">
              <mxPoint x="-753.1500000000001" y="1468.27" />
            </Array>
            <mxPoint x="-663.22" y="1467.5" as="targetPoint" />
            <mxPoint as="offset" />
          </mxGeometry>
        </mxCell>
        <mxCell id="zuJS7TScdpKPQM_Z_yAq-25" value="按下會員註冊按鈕()" style="html=1;verticalAlign=bottom;endArrow=block;edgeStyle=elbowEdgeStyle;elbow=horizontal;curved=0;rounded=0;align=right;" edge="1" parent="zuJS7TScdpKPQM_Z_yAq-1">
          <mxGeometry x="0.6388" relative="1" as="geometry">
            <mxPoint x="-818.0007407407409" y="1032" as="sourcePoint" />
            <Array as="points">
              <mxPoint x="-747.2700000000001" y="1032" />
            </Array>
            <mxPoint x="-661.7900000000001" y="1032" as="targetPoint" />
            <mxPoint as="offset" />
          </mxGeometry>
        </mxCell>
        <mxCell id="zuJS7TScdpKPQM_Z_yAq-27" value="帳號已存在" style="html=1;verticalAlign=bottom;endArrow=none;edgeStyle=elbowEdgeStyle;elbow=vertical;curved=0;rounded=0;startArrow=open;startFill=0;endFill=0;dashed=1;" edge="1" parent="zuJS7TScdpKPQM_Z_yAq-1">
          <mxGeometry x="0.0042" relative="1" as="geometry">
            <mxPoint x="-651.4500000000003" y="1214" as="sourcePoint" />
            <Array as="points">
              <mxPoint x="-586.45" y="1214" />
            </Array>
            <mxPoint x="-500.97" y="1214" as="targetPoint" />
            <mxPoint as="offset" />
          </mxGeometry>
        </mxCell>
        <mxCell id="zuJS7TScdpKPQM_Z_yAq-29" value="輸入會員資料(會員資料)" style="html=1;verticalAlign=bottom;endArrow=block;edgeStyle=elbowEdgeStyle;elbow=vertical;curved=0;rounded=0;" edge="1" parent="zuJS7TScdpKPQM_Z_yAq-1">
          <mxGeometry x="-0.0015" relative="1" as="geometry">
            <mxPoint x="-814.0000000000002" y="1133" as="sourcePoint" />
            <Array as="points">
              <mxPoint x="-749" y="1133" />
            </Array>
            <mxPoint x="-664" y="1133" as="targetPoint" />
            <mxPoint as="offset" />
          </mxGeometry>
        </mxCell>
        <mxCell id="zuJS7TScdpKPQM_Z_yAq-31" value="" style="group" vertex="1" connectable="0" parent="zuJS7TScdpKPQM_Z_yAq-1">
          <mxGeometry x="-480" y="1270" width="110" height="25" as="geometry" />
        </mxCell>
        <mxCell id="zuJS7TScdpKPQM_Z_yAq-32" value="&lt;span style=&quot;font-size: 11px; background-color: rgb(255, 255, 255);&quot;&gt;驗證會員資料格式()&lt;/span&gt;" style="text;whiteSpace=wrap;html=1;align=center;" vertex="1" parent="zuJS7TScdpKPQM_Z_yAq-31">
          <mxGeometry x="18.64406779661017" width="102.54237288135592" height="25" as="geometry" />
        </mxCell>
        <mxCell id="zuJS7TScdpKPQM_Z_yAq-34" value="驗證成功" style="html=1;verticalAlign=bottom;endArrow=none;edgeStyle=elbowEdgeStyle;elbow=horizontal;curved=0;rounded=0;startArrow=open;startFill=0;endFill=0;dashed=1;" edge="1" parent="zuJS7TScdpKPQM_Z_yAq-1">
          <mxGeometry x="0.0042" relative="1" as="geometry">
            <mxPoint x="-651.4500000000003" y="1390" as="sourcePoint" />
            <Array as="points">
              <mxPoint x="-586.45" y="1390" />
            </Array>
            <mxPoint x="-500.97" y="1390" as="targetPoint" />
            <mxPoint as="offset" />
          </mxGeometry>
        </mxCell>
        <mxCell id="zuJS7TScdpKPQM_Z_yAq-36" value="驗證失敗" style="html=1;verticalAlign=bottom;endArrow=none;edgeStyle=elbowEdgeStyle;elbow=horizontal;curved=0;rounded=0;startArrow=open;startFill=0;endFill=0;dashed=1;" edge="1" parent="zuJS7TScdpKPQM_Z_yAq-1">
          <mxGeometry x="0.0007" relative="1" as="geometry">
            <mxPoint x="-651.4500000000003" y="1452" as="sourcePoint" />
            <Array as="points">
              <mxPoint x="-586.45" y="1452" />
            </Array>
            <mxPoint x="-500.97" y="1452" as="targetPoint" />
            <mxPoint as="offset" />
          </mxGeometry>
        </mxCell>
        <mxCell id="zuJS7TScdpKPQM_Z_yAq-38" value="要求輸入其他帳號" style="html=1;verticalAlign=bottom;endArrow=none;edgeStyle=elbowEdgeStyle;elbow=vertical;curved=0;rounded=0;startArrow=open;startFill=0;endFill=0;dashed=1;" edge="1" parent="zuJS7TScdpKPQM_Z_yAq-1">
          <mxGeometry relative="1" as="geometry">
            <mxPoint x="-815.0000000000003" y="1232" as="sourcePoint" />
            <Array as="points">
              <mxPoint x="-750.0000000000001" y="1232" />
            </Array>
            <mxPoint x="-664.5200000000001" y="1232" as="targetPoint" />
            <mxPoint as="offset" />
          </mxGeometry>
        </mxCell>
        <mxCell id="zuJS7TScdpKPQM_Z_yAq-39" value="" style="group" vertex="1" connectable="0" parent="zuJS7TScdpKPQM_Z_yAq-1">
          <mxGeometry x="-486" y="1350" width="118" height="25" as="geometry" />
        </mxCell>
        <mxCell id="zuJS7TScdpKPQM_Z_yAq-40" value="&lt;span style=&quot;font-size: 11px; background-color: rgb(255, 255, 255);&quot;&gt;新增會員資料()&lt;/span&gt;" style="text;whiteSpace=wrap;html=1;align=center;" vertex="1" parent="zuJS7TScdpKPQM_Z_yAq-39">
          <mxGeometry x="20" width="110" height="25" as="geometry" />
        </mxCell>
        <mxCell id="zuJS7TScdpKPQM_Z_yAq-41" value="" style="endArrow=classic;html=1;rounded=0;" edge="1" parent="zuJS7TScdpKPQM_Z_yAq-39">
          <mxGeometry width="50" height="50" relative="1" as="geometry">
            <mxPoint x="-5.029999999999973" y="2" as="sourcePoint" />
            <mxPoint x="-5.029999999999973" y="22" as="targetPoint" />
            <Array as="points">
              <mxPoint x="21" y="2" />
              <mxPoint x="21" y="12" />
              <mxPoint x="21" y="22" />
              <mxPoint x="11" y="22" />
            </Array>
          </mxGeometry>
        </mxCell>
        <mxCell id="eW3BuC87_s44XZLgULxj-0" value="" style="edgeStyle=segmentEdgeStyle;endArrow=classic;html=1;curved=0;rounded=0;endSize=8;startSize=8;sourcePerimeterSpacing=0;targetPerimeterSpacing=0;" edge="1" parent="zuJS7TScdpKPQM_Z_yAq-1" target="zuJS7TScdpKPQM_Z_yAq-4">
          <mxGeometry width="100" relative="1" as="geometry">
            <mxPoint x="-650" y="1042" as="sourcePoint" />
            <mxPoint x="-550" y="1082" as="targetPoint" />
            <Array as="points">
              <mxPoint x="-600" y="1042" />
              <mxPoint x="-600" y="1062" />
            </Array>
          </mxGeometry>
        </mxCell>
        <mxCell id="eW3BuC87_s44XZLgULxj-1" value="切換註冊頁面()" style="text;html=1;align=center;verticalAlign=middle;resizable=0;points=[];autosize=1;strokeColor=none;fillColor=none;" vertex="1" parent="zuJS7TScdpKPQM_Z_yAq-1">
          <mxGeometry x="-609.73" y="1040" width="100" height="30" as="geometry" />
        </mxCell>
        <mxCell id="eW3BuC87_s44XZLgULxj-2" value="顯示會員註冊頁面" style="html=1;verticalAlign=bottom;endArrow=none;edgeStyle=elbowEdgeStyle;elbow=horizontal;curved=0;rounded=0;startArrow=open;startFill=0;endFill=0;dashed=1;" edge="1" parent="zuJS7TScdpKPQM_Z_yAq-1">
          <mxGeometry relative="1" as="geometry">
            <mxPoint x="-814.0000000000003" y="1082" as="sourcePoint" />
            <Array as="points">
              <mxPoint x="-749.0000000000001" y="1082" />
            </Array>
            <mxPoint x="-663.58" y="1082" as="targetPoint" />
            <mxPoint as="offset" />
          </mxGeometry>
        </mxCell>
        <mxCell id="eW3BuC87_s44XZLgULxj-4" value="查詢會員資料(會員資料)" style="html=1;verticalAlign=bottom;endArrow=block;edgeStyle=elbowEdgeStyle;elbow=vertical;curved=0;rounded=0;" edge="1" parent="zuJS7TScdpKPQM_Z_yAq-1">
          <mxGeometry x="-0.0015" relative="1" as="geometry">
            <mxPoint x="-651.4500000000003" y="1140" as="sourcePoint" />
            <Array as="points">
              <mxPoint x="-586.45" y="1140" />
            </Array>
            <mxPoint x="-500.97" y="1140" as="targetPoint" />
            <mxPoint as="offset" />
          </mxGeometry>
        </mxCell>
        <mxCell id="akf3tHxvWumSpn8Nkf2B-0" value="" style="html=1;points=[[0,0,0,0,5],[0,1,0,0,-5],[1,0,0,0,5],[1,1,0,0,-5]];perimeter=orthogonalPerimeter;outlineConnect=0;targetShapes=umlLifeline;portConstraint=eastwest;newEdgeStyle={&quot;curved&quot;:0,&quot;rounded&quot;:0};" vertex="1" parent="zuJS7TScdpKPQM_Z_yAq-1">
          <mxGeometry x="-822.42" y="1012.5" width="10" height="477.5" as="geometry" />
        </mxCell>
        <mxCell id="zuJS7TScdpKPQM_Z_yAq-33" value="" style="endArrow=classic;html=1;rounded=0;" edge="1" parent="zuJS7TScdpKPQM_Z_yAq-1">
          <mxGeometry width="50" height="50" relative="1" as="geometry">
            <mxPoint x="-490" y="1275" as="sourcePoint" />
            <mxPoint x="-490" y="1295" as="targetPoint" />
            <Array as="points">
              <mxPoint x="-463.97" y="1275" />
              <mxPoint x="-463.97" y="1285" />
              <mxPoint x="-463.97" y="1295" />
              <mxPoint x="-473.97" y="1295" />
            </Array>
          </mxGeometry>
        </mxCell>
        <mxCell id="sxeQdRgcau2lCvBWTXBK-0" value="&lt;span style=&quot;font-size: 16px; text-wrap: nowrap;&quot;&gt;會員註冊循序圖&lt;/span&gt;" style="shape=umlFrame;whiteSpace=wrap;html=1;pointerEvents=0;width=130;height=30;" vertex="1" parent="zuJS7TScdpKPQM_Z_yAq-1">
          <mxGeometry x="-980" y="890" width="710" height="690" as="geometry" />
        </mxCell>
      </root>
    </mxGraphModel>
  </diagram>
  <diagram name="會員資料管理循序圖" id="5HJT1YMsNfAK2883uT5L">
    <mxGraphModel grid="1" page="1" gridSize="10" guides="1" tooltips="1" connect="1" arrows="1" fold="1" pageScale="1" pageWidth="1100" pageHeight="850" background="none" math="0" shadow="0">
      <root>
        <mxCell id="kOoGhTkJuslHZsMkl13E-0" />
        <mxCell id="kOoGhTkJuslHZsMkl13E-1" parent="kOoGhTkJuslHZsMkl13E-0" />
        <mxCell id="kOoGhTkJuslHZsMkl13E-12" value="：Backend" style="shape=umlLifeline;perimeter=lifelinePerimeter;whiteSpace=wrap;html=1;container=0;dropTarget=0;collapsible=0;recursiveResize=0;outlineConnect=0;portConstraint=eastwest;newEdgeStyle={&quot;edgeStyle&quot;:&quot;elbowEdgeStyle&quot;,&quot;elbow&quot;:&quot;vertical&quot;,&quot;curved&quot;:0,&quot;rounded&quot;:0};rounded=1;" vertex="1" parent="kOoGhTkJuslHZsMkl13E-1">
          <mxGeometry x="-545.97" y="935.5" width="100" height="774.5" as="geometry" />
        </mxCell>
        <mxCell id="jk6vNlnlSSqctIZND4DU-3" value="" style="endArrow=none;dashed=1;html=1;rounded=0;" edge="1" parent="kOoGhTkJuslHZsMkl13E-1">
          <mxGeometry width="50" height="50" relative="1" as="geometry">
            <mxPoint x="-817" y="1710" as="sourcePoint" />
            <mxPoint x="-817.4200000000001" y="1000" as="targetPoint" />
          </mxGeometry>
        </mxCell>
        <mxCell id="kOoGhTkJuslHZsMkl13E-2" value="：UI" style="shape=umlLifeline;perimeter=lifelinePerimeter;whiteSpace=wrap;html=1;container=0;dropTarget=0;collapsible=0;recursiveResize=0;outlineConnect=0;portConstraint=eastwest;newEdgeStyle={&quot;edgeStyle&quot;:&quot;elbowEdgeStyle&quot;,&quot;elbow&quot;:&quot;vertical&quot;,&quot;curved&quot;:0,&quot;rounded&quot;:0};rounded=1;" vertex="1" parent="kOoGhTkJuslHZsMkl13E-1">
          <mxGeometry x="-706.94" y="935.5" width="100" height="774.5" as="geometry" />
        </mxCell>
        <mxCell id="kOoGhTkJuslHZsMkl13E-3" value="" style="html=1;points=[];perimeter=orthogonalPerimeter;outlineConnect=0;targetShapes=umlLifeline;portConstraint=eastwest;newEdgeStyle={&quot;edgeStyle&quot;:&quot;elbowEdgeStyle&quot;,&quot;elbow&quot;:&quot;vertical&quot;,&quot;curved&quot;:0,&quot;rounded&quot;:0};" vertex="1" parent="kOoGhTkJuslHZsMkl13E-2">
          <mxGeometry x="44.53" y="94.5" width="10" height="105.5" as="geometry" />
        </mxCell>
        <mxCell id="OARWMO6FcCzNcXTeTgHB-0" value="" style="html=1;points=[];perimeter=orthogonalPerimeter;outlineConnect=0;targetShapes=umlLifeline;portConstraint=eastwest;newEdgeStyle={&quot;edgeStyle&quot;:&quot;elbowEdgeStyle&quot;,&quot;elbow&quot;:&quot;vertical&quot;,&quot;curved&quot;:0,&quot;rounded&quot;:0};" vertex="1" parent="kOoGhTkJuslHZsMkl13E-2">
          <mxGeometry x="44.53" y="278.5" width="10" height="111.5" as="geometry" />
        </mxCell>
        <mxCell id="OARWMO6FcCzNcXTeTgHB-2" value="" style="html=1;points=[];perimeter=orthogonalPerimeter;outlineConnect=0;targetShapes=umlLifeline;portConstraint=eastwest;newEdgeStyle={&quot;edgeStyle&quot;:&quot;elbowEdgeStyle&quot;,&quot;elbow&quot;:&quot;vertical&quot;,&quot;curved&quot;:0,&quot;rounded&quot;:0};" vertex="1" parent="kOoGhTkJuslHZsMkl13E-2">
          <mxGeometry x="205.97" y="280" width="10" height="90" as="geometry" />
        </mxCell>
        <mxCell id="OARWMO6FcCzNcXTeTgHB-5" value="輸入更改資料(會員資料)" style="html=1;verticalAlign=bottom;endArrow=block;edgeStyle=elbowEdgeStyle;elbow=vertical;curved=0;rounded=0;align=right;" edge="1" parent="kOoGhTkJuslHZsMkl13E-2">
          <mxGeometry x="0.8929" relative="1" as="geometry">
            <mxPoint x="-105.48074074074077" y="288.5" as="sourcePoint" />
            <Array as="points">
              <mxPoint x="-34.75" y="288.5" />
            </Array>
            <mxPoint x="45" y="288.5" as="targetPoint" />
            <mxPoint as="offset" />
          </mxGeometry>
        </mxCell>
        <mxCell id="kOoGhTkJuslHZsMkl13E-7" value="：使用者" style="shape=umlActor;verticalLabelPosition=bottom;verticalAlign=top;html=1;" vertex="1" parent="kOoGhTkJuslHZsMkl13E-1">
          <mxGeometry x="-832.4200000000001" y="915" width="30" height="60" as="geometry" />
        </mxCell>
        <mxCell id="kOoGhTkJuslHZsMkl13E-11" value="alt" style="shape=umlFrame;whiteSpace=wrap;html=1;pointerEvents=0;width=40;height=30;" vertex="1" parent="kOoGhTkJuslHZsMkl13E-1">
          <mxGeometry x="-980" y="1010" width="660" height="680" as="geometry" />
        </mxCell>
        <mxCell id="kOoGhTkJuslHZsMkl13E-25" value="" style="endArrow=none;html=1;rounded=0;dashed=1;dashPattern=1 4;entryX=-0.005;entryY=0.249;entryDx=0;entryDy=0;entryPerimeter=0;" edge="1" parent="kOoGhTkJuslHZsMkl13E-1">
          <mxGeometry width="50" height="50" relative="1" as="geometry">
            <mxPoint x="-320" y="1174" as="sourcePoint" />
            <mxPoint x="-980.0000000000001" y="1175.61" as="targetPoint" />
          </mxGeometry>
        </mxCell>
        <mxCell id="RgUlNxjlKB3ZiEPs9vft-0" value="[偏好設定修改]" style="text;html=1;align=center;verticalAlign=middle;resizable=0;points=[];autosize=1;strokeColor=none;fillColor=none;" vertex="1" parent="kOoGhTkJuslHZsMkl13E-1">
          <mxGeometry x="-980" y="1050" width="100" height="30" as="geometry" />
        </mxCell>
        <mxCell id="OARWMO6FcCzNcXTeTgHB-6" value="" style="html=1;points=[];perimeter=orthogonalPerimeter;outlineConnect=0;targetShapes=umlLifeline;portConstraint=eastwest;newEdgeStyle={&quot;edgeStyle&quot;:&quot;elbowEdgeStyle&quot;,&quot;elbow&quot;:&quot;vertical&quot;,&quot;curved&quot;:0,&quot;rounded&quot;:0};" vertex="1" parent="kOoGhTkJuslHZsMkl13E-1">
          <mxGeometry x="-822" y="1194" width="10" height="146" as="geometry" />
        </mxCell>
        <mxCell id="OARWMO6FcCzNcXTeTgHB-14" value="[個人資料修改]" style="text;html=1;align=center;verticalAlign=middle;resizable=0;points=[];autosize=1;strokeColor=none;fillColor=none;" vertex="1" parent="kOoGhTkJuslHZsMkl13E-1">
          <mxGeometry x="-975" y="1194" width="100" height="30" as="geometry" />
        </mxCell>
        <mxCell id="OARWMO6FcCzNcXTeTgHB-15" value="" style="endArrow=none;html=1;rounded=0;dashed=1;dashPattern=1 4;exitX=0.999;exitY=0.5;exitDx=0;exitDy=0;exitPerimeter=0;entryX=0.001;entryY=0.515;entryDx=0;entryDy=0;entryPerimeter=0;" edge="1" parent="kOoGhTkJuslHZsMkl13E-1">
          <mxGeometry width="50" height="50" relative="1" as="geometry">
            <mxPoint x="-320.65999999999985" y="1372" as="sourcePoint" />
            <mxPoint x="-979.3399999999999" y="1372.2" as="targetPoint" />
          </mxGeometry>
        </mxCell>
        <mxCell id="OARWMO6FcCzNcXTeTgHB-16" value="[密碼修改]" style="text;html=1;align=center;verticalAlign=middle;resizable=0;points=[];autosize=1;strokeColor=none;fillColor=none;" vertex="1" parent="kOoGhTkJuslHZsMkl13E-1">
          <mxGeometry x="-975" y="1406.75" width="80" height="30" as="geometry" />
        </mxCell>
        <mxCell id="OARWMO6FcCzNcXTeTgHB-7" value="會員資料更新成功" style="html=1;verticalAlign=bottom;endArrow=none;edgeStyle=elbowEdgeStyle;elbow=vertical;curved=0;rounded=0;startArrow=open;startFill=0;endFill=0;dashed=1;" edge="1" parent="kOoGhTkJuslHZsMkl13E-1">
          <mxGeometry x="-0.1292" relative="1" as="geometry">
            <mxPoint x="-651.4100000000001" y="1290" as="sourcePoint" />
            <Array as="points">
              <mxPoint x="-585.6800000000001" y="1290" />
            </Array>
            <mxPoint x="-500.20000000000005" y="1290" as="targetPoint" />
            <mxPoint as="offset" />
          </mxGeometry>
        </mxCell>
        <mxCell id="esslg7atbX4JOfID9qcq-2" value="執行更改資料(會員資料)" style="html=1;verticalAlign=bottom;endArrow=block;edgeStyle=elbowEdgeStyle;elbow=vertical;curved=0;rounded=0;align=right;" edge="1" parent="kOoGhTkJuslHZsMkl13E-1">
          <mxGeometry x="0.7121" relative="1" as="geometry">
            <mxPoint x="-651.4507407407409" y="1240" as="sourcePoint" />
            <Array as="points">
              <mxPoint x="-580.72" y="1240" />
            </Array>
            <mxPoint x="-500.9700000000001" y="1240" as="targetPoint" />
            <mxPoint as="offset" />
          </mxGeometry>
        </mxCell>
        <mxCell id="cZ5Ki8iNAfqjwNW4YrIa-9" value="驗證密碼格式()" style="text;html=1;align=center;verticalAlign=middle;resizable=0;points=[];autosize=1;strokeColor=none;fillColor=none;" vertex="1" parent="kOoGhTkJuslHZsMkl13E-1">
          <mxGeometry x="-460.63" y="1470" width="100" height="30" as="geometry" />
        </mxCell>
        <mxCell id="x-Ftm6_CD_t3FWpC1-5Q-0" value="" style="html=1;points=[];perimeter=orthogonalPerimeter;outlineConnect=0;targetShapes=umlLifeline;portConstraint=eastwest;newEdgeStyle={&quot;edgeStyle&quot;:&quot;elbowEdgeStyle&quot;,&quot;elbow&quot;:&quot;vertical&quot;,&quot;curved&quot;:0,&quot;rounded&quot;:0};" vertex="1" parent="kOoGhTkJuslHZsMkl13E-1">
          <mxGeometry x="-661.41" y="1444" width="10" height="206" as="geometry" />
        </mxCell>
        <mxCell id="x-Ftm6_CD_t3FWpC1-5Q-1" value="" style="html=1;points=[];perimeter=orthogonalPerimeter;outlineConnect=0;targetShapes=umlLifeline;portConstraint=eastwest;newEdgeStyle={&quot;edgeStyle&quot;:&quot;elbowEdgeStyle&quot;,&quot;elbow&quot;:&quot;vertical&quot;,&quot;curved&quot;:0,&quot;rounded&quot;:0};" vertex="1" parent="kOoGhTkJuslHZsMkl13E-1">
          <mxGeometry x="-499.97" y="1444" width="10" height="185.5" as="geometry" />
        </mxCell>
        <mxCell id="x-Ftm6_CD_t3FWpC1-5Q-5" value="輸入更改密碼(新密碼)" style="html=1;verticalAlign=bottom;endArrow=block;edgeStyle=elbowEdgeStyle;elbow=horizontal;curved=0;rounded=0;align=right;" edge="1" parent="kOoGhTkJuslHZsMkl13E-1">
          <mxGeometry x="0.7467" relative="1" as="geometry">
            <mxPoint x="-811.4207407407408" y="1454" as="sourcePoint" />
            <Array as="points">
              <mxPoint x="-740.69" y="1454" />
            </Array>
            <mxPoint x="-660.94" y="1454" as="targetPoint" />
            <mxPoint as="offset" />
          </mxGeometry>
        </mxCell>
        <mxCell id="x-Ftm6_CD_t3FWpC1-5Q-6" value="密碼更新成功" style="html=1;verticalAlign=bottom;endArrow=none;edgeStyle=elbowEdgeStyle;elbow=vertical;curved=0;rounded=0;startArrow=open;startFill=0;endFill=0;dashed=1;" edge="1" parent="kOoGhTkJuslHZsMkl13E-1">
          <mxGeometry x="-0.1292" relative="1" as="geometry">
            <mxPoint x="-811.84" y="1574" as="sourcePoint" />
            <Array as="points">
              <mxPoint x="-746.08" y="1574" />
            </Array>
            <mxPoint x="-660.6" y="1574" as="targetPoint" />
            <mxPoint as="offset" />
          </mxGeometry>
        </mxCell>
        <mxCell id="x-Ftm6_CD_t3FWpC1-5Q-7" value="" style="html=1;points=[];perimeter=orthogonalPerimeter;outlineConnect=0;targetShapes=umlLifeline;portConstraint=eastwest;newEdgeStyle={&quot;edgeStyle&quot;:&quot;elbowEdgeStyle&quot;,&quot;elbow&quot;:&quot;vertical&quot;,&quot;curved&quot;:0,&quot;rounded&quot;:0};" vertex="1" parent="kOoGhTkJuslHZsMkl13E-1">
          <mxGeometry x="-821" y="1440" width="10" height="214" as="geometry" />
        </mxCell>
        <mxCell id="x-Ftm6_CD_t3FWpC1-5Q-8" value="密碼更新成功" style="html=1;verticalAlign=bottom;endArrow=none;edgeStyle=elbowEdgeStyle;elbow=vertical;curved=0;rounded=0;startArrow=open;startFill=0;endFill=0;dashed=1;" edge="1" parent="kOoGhTkJuslHZsMkl13E-1">
          <mxGeometry x="-0.1292" relative="1" as="geometry">
            <mxPoint x="-651.1800000000001" y="1558.76" as="sourcePoint" />
            <Array as="points">
              <mxPoint x="-585.45" y="1558.76" />
            </Array>
            <mxPoint x="-499.97" y="1558.76" as="targetPoint" />
            <mxPoint as="offset" />
          </mxGeometry>
        </mxCell>
        <mxCell id="x-Ftm6_CD_t3FWpC1-5Q-9" value="執行更改密碼(新密碼)" style="html=1;verticalAlign=bottom;endArrow=block;edgeStyle=elbowEdgeStyle;elbow=vertical;curved=0;rounded=0;align=right;" edge="1" parent="kOoGhTkJuslHZsMkl13E-1">
          <mxGeometry x="0.6988" relative="1" as="geometry">
            <mxPoint x="-650.4507407407409" y="1460" as="sourcePoint" />
            <Array as="points">
              <mxPoint x="-579.72" y="1460" />
            </Array>
            <mxPoint x="-499.9700000000001" y="1460" as="targetPoint" />
            <mxPoint as="offset" />
          </mxGeometry>
        </mxCell>
        <mxCell id="x-Ftm6_CD_t3FWpC1-5Q-10" value="&amp;nbsp;[修改成功]" style="text;html=1;strokeColor=none;fillColor=none;align=left;verticalAlign=middle;whiteSpace=wrap;rounded=0;" vertex="1" parent="kOoGhTkJuslHZsMkl13E-1">
          <mxGeometry x="-891" y="1544" width="80" height="30" as="geometry" />
        </mxCell>
        <mxCell id="x-Ftm6_CD_t3FWpC1-5Q-11" value="&amp;nbsp;[修改失敗]" style="text;html=1;strokeColor=none;fillColor=none;align=left;verticalAlign=middle;whiteSpace=wrap;rounded=0;" vertex="1" parent="kOoGhTkJuslHZsMkl13E-1">
          <mxGeometry x="-891" y="1606" width="72" height="30" as="geometry" />
        </mxCell>
        <mxCell id="x-Ftm6_CD_t3FWpC1-5Q-12" value="alt" style="shape=umlFrame;whiteSpace=wrap;html=1;pointerEvents=0;width=40;height=30;" vertex="1" parent="kOoGhTkJuslHZsMkl13E-1">
          <mxGeometry x="-919" y="1526" width="559" height="138" as="geometry" />
        </mxCell>
        <mxCell id="x-Ftm6_CD_t3FWpC1-5Q-14" value="" style="endArrow=none;html=1;rounded=0;dashed=1;dashPattern=1 4;entryX=-0.005;entryY=0.249;entryDx=0;entryDy=0;entryPerimeter=0;" edge="1" parent="kOoGhTkJuslHZsMkl13E-1">
          <mxGeometry width="50" height="50" relative="1" as="geometry">
            <mxPoint x="-360" y="1595" as="sourcePoint" />
            <mxPoint x="-919" y="1595" as="targetPoint" />
          </mxGeometry>
        </mxCell>
        <mxCell id="x-Ftm6_CD_t3FWpC1-5Q-16" value="要求重新輸入密碼" style="html=1;verticalAlign=bottom;endArrow=none;edgeStyle=elbowEdgeStyle;elbow=vertical;curved=0;rounded=0;startArrow=open;startFill=0;endFill=0;dashed=1;" edge="1" parent="kOoGhTkJuslHZsMkl13E-1">
          <mxGeometry x="-0.1292" relative="1" as="geometry">
            <mxPoint x="-811" y="1636" as="sourcePoint" />
            <Array as="points">
              <mxPoint x="-745.24" y="1636" />
            </Array>
            <mxPoint x="-659.76" y="1636" as="targetPoint" />
            <mxPoint as="offset" />
          </mxGeometry>
        </mxCell>
        <mxCell id="x-Ftm6_CD_t3FWpC1-5Q-17" value="密碼更新失敗" style="html=1;verticalAlign=bottom;endArrow=none;edgeStyle=elbowEdgeStyle;elbow=vertical;curved=0;rounded=0;startArrow=open;startFill=0;endFill=0;dashed=1;" edge="1" parent="kOoGhTkJuslHZsMkl13E-1">
          <mxGeometry x="-0.1292" relative="1" as="geometry">
            <mxPoint x="-651.1800000000001" y="1620.76" as="sourcePoint" />
            <Array as="points">
              <mxPoint x="-585.45" y="1620.76" />
            </Array>
            <mxPoint x="-499.9700000000001" y="1620.76" as="targetPoint" />
            <mxPoint as="offset" />
          </mxGeometry>
        </mxCell>
        <mxCell id="kOoGhTkJuslHZsMkl13E-24" value="" style="html=1;points=[];perimeter=orthogonalPerimeter;outlineConnect=0;targetShapes=umlLifeline;portConstraint=eastwest;newEdgeStyle={&quot;edgeStyle&quot;:&quot;elbowEdgeStyle&quot;,&quot;elbow&quot;:&quot;vertical&quot;,&quot;curved&quot;:0,&quot;rounded&quot;:0};" vertex="1" parent="kOoGhTkJuslHZsMkl13E-1">
          <mxGeometry x="-500.97" y="1034.5" width="10" height="75.5" as="geometry" />
        </mxCell>
        <mxCell id="kOoGhTkJuslHZsMkl13E-17" value="修改偏好設定()" style="html=1;verticalAlign=bottom;endArrow=block;edgeStyle=elbowEdgeStyle;elbow=vertical;curved=0;rounded=0;align=right;" edge="1" parent="kOoGhTkJuslHZsMkl13E-1">
          <mxGeometry x="0.4886" relative="1" as="geometry">
            <mxPoint x="-812.4207407407408" y="1044.5" as="sourcePoint" />
            <Array as="points">
              <mxPoint x="-741.69" y="1044.5" />
            </Array>
            <mxPoint x="-661.94" y="1044.5" as="targetPoint" />
            <mxPoint as="offset" />
          </mxGeometry>
        </mxCell>
        <mxCell id="kOoGhTkJuslHZsMkl13E-29" value="" style="html=1;points=[];perimeter=orthogonalPerimeter;outlineConnect=0;targetShapes=umlLifeline;portConstraint=eastwest;newEdgeStyle={&quot;edgeStyle&quot;:&quot;elbowEdgeStyle&quot;,&quot;elbow&quot;:&quot;vertical&quot;,&quot;curved&quot;:0,&quot;rounded&quot;:0};" vertex="1" parent="kOoGhTkJuslHZsMkl13E-1">
          <mxGeometry x="-822.4200000000001" y="1020" width="10" height="130" as="geometry" />
        </mxCell>
        <mxCell id="htE_Hi2phCT5LGwVNqJ6-0" value="偏好設定更新成功" style="html=1;verticalAlign=bottom;endArrow=none;edgeStyle=elbowEdgeStyle;elbow=vertical;curved=0;rounded=0;startArrow=open;startFill=0;endFill=0;dashed=1;" edge="1" parent="kOoGhTkJuslHZsMkl13E-1">
          <mxGeometry x="-0.1292" relative="1" as="geometry">
            <mxPoint x="-650" y="1100" as="sourcePoint" />
            <Array as="points">
              <mxPoint x="-588.8700000000001" y="1100" />
            </Array>
            <mxPoint x="-503.39000000000004" y="1100" as="targetPoint" />
            <mxPoint as="offset" />
          </mxGeometry>
        </mxCell>
        <mxCell id="gVhkqGymy6O4_1rNhZmc-0" value="更新偏好設定()" style="html=1;verticalAlign=bottom;endArrow=block;edgeStyle=elbowEdgeStyle;elbow=vertical;curved=0;rounded=0;align=right;" edge="1" parent="kOoGhTkJuslHZsMkl13E-1" source="kOoGhTkJuslHZsMkl13E-3" target="kOoGhTkJuslHZsMkl13E-24">
          <mxGeometry x="0.462" relative="1" as="geometry">
            <mxPoint x="-650.0007407407409" y="1054.5" as="sourcePoint" />
            <Array as="points">
              <mxPoint x="-579.2700000000001" y="1054.5" />
            </Array>
            <mxPoint x="-499.5200000000001" y="1054.5" as="targetPoint" />
            <mxPoint as="offset" />
          </mxGeometry>
        </mxCell>
        <mxCell id="jk6vNlnlSSqctIZND4DU-2" value="顯示設定更新成功" style="html=1;verticalAlign=bottom;endArrow=none;edgeStyle=elbowEdgeStyle;elbow=vertical;curved=0;rounded=0;startArrow=open;startFill=0;endFill=0;dashed=1;" edge="1" parent="kOoGhTkJuslHZsMkl13E-1">
          <mxGeometry x="-0.0423" relative="1" as="geometry">
            <mxPoint x="-812.4200000000001" y="1124.5" as="sourcePoint" />
            <Array as="points">
              <mxPoint x="-746.6600000000001" y="1124.5" />
            </Array>
            <mxPoint x="-661.1800000000001" y="1124.5" as="targetPoint" />
            <mxPoint as="offset" />
          </mxGeometry>
        </mxCell>
        <mxCell id="OARWMO6FcCzNcXTeTgHB-10" value="顯示資料更新成功" style="html=1;verticalAlign=bottom;endArrow=none;edgeStyle=elbowEdgeStyle;elbow=vertical;curved=0;rounded=0;startArrow=open;startFill=0;endFill=0;dashed=1;" edge="1" parent="kOoGhTkJuslHZsMkl13E-1" source="OARWMO6FcCzNcXTeTgHB-6">
          <mxGeometry x="-0.1292" relative="1" as="geometry">
            <mxPoint x="-810" y="1310" as="sourcePoint" />
            <Array as="points">
              <mxPoint x="-747.8900000000001" y="1310" />
            </Array>
            <mxPoint x="-662.4100000000001" y="1310" as="targetPoint" />
            <mxPoint as="offset" />
          </mxGeometry>
        </mxCell>
        <mxCell id="nM-7X8dlo7A84keRa4Um-1" value="&lt;span style=&quot;color: rgba(0, 0, 0, 0); font-family: monospace; font-size: 0px; text-align: start;&quot;&gt;%3CmxGraphModel%3E%3Croot%3E%3CmxCell%20id%3D%220%22%2F%3E%3CmxCell%20id%3D%221%22%20parent%3D%220%22%2F%3E%3CmxCell%20id%3D%222%22%20value%3D%22%E5%81%8F%E5%A5%BD%E8%A8%AD%E5%AE%9A%E6%9B%B4%E6%96%B0%E6%88%90%E5%8A%9F%22%20style%3D%22html%3D1%3BverticalAlign%3Dbottom%3BendArrow%3Dnone%3BedgeStyle%3DelbowEdgeStyle%3Belbow%3Dvertical%3Bcurved%3D0%3Brounded%3D0%3BstartArrow%3Dopen%3BstartFill%3D0%3BendFill%3D0%3Bdashed%3D1%3B%22%20edge%3D%221%22%20parent%3D%221%22%3E%3CmxGeometry%20x%3D%22-0.1292%22%20relative%3D%221%22%20as%3D%22geometry%22%3E%3CmxPoint%20x%3D%22-490.97%22%20y%3D%221110%22%20as%3D%22sourcePoint%22%2F%3E%3CArray%20as%3D%22points%22%3E%3CmxPoint%20x%3D%22-425.24000000000007%22%20y%3D%221110%22%2F%3E%3C%2FArray%3E%3CmxPoint%20x%3D%22-339.76000000000005%22%20y%3D%221110%22%20as%3D%22targetPoint%22%2F%3E%3CmxPoint%20as%3D%22offset%22%2F%3E%3C%2FmxGeometry%3E%3C%2FmxCell%3E%3C%2Froot%3E%3C%2FmxGraphModel%3E&lt;/span&gt;" style="html=1;points=[];perimeter=orthogonalPerimeter;outlineConnect=0;targetShapes=umlLifeline;portConstraint=eastwest;newEdgeStyle={&quot;edgeStyle&quot;:&quot;elbowEdgeStyle&quot;,&quot;elbow&quot;:&quot;vertical&quot;,&quot;curved&quot;:0,&quot;rounded&quot;:0};" vertex="1" parent="kOoGhTkJuslHZsMkl13E-1">
          <mxGeometry x="-494.97" y="1494" width="10" height="16" as="geometry" />
        </mxCell>
        <mxCell id="x-Ftm6_CD_t3FWpC1-5Q-13" value="" style="edgeStyle=segmentEdgeStyle;endArrow=classic;html=1;curved=0;rounded=0;endSize=8;startSize=8;sourcePerimeterSpacing=0;targetPerimeterSpacing=0;" edge="1" parent="kOoGhTkJuslHZsMkl13E-1">
          <mxGeometry width="100" relative="1" as="geometry">
            <mxPoint x="-490.96999999999997" y="1477" as="sourcePoint" />
            <mxPoint x="-490.63" y="1497" as="targetPoint" />
            <Array as="points">
              <mxPoint x="-453.63" y="1477" />
              <mxPoint x="-453.63" y="1497" />
            </Array>
          </mxGeometry>
        </mxCell>
        <mxCell id="9ZpoVQF0P3ZdcRb46V3r-0" value="&lt;span style=&quot;font-size: 16px; text-wrap: nowrap;&quot;&gt;會員資料管理循序圖&lt;/span&gt;" style="shape=umlFrame;whiteSpace=wrap;html=1;pointerEvents=0;width=160;height=32;" vertex="1" parent="kOoGhTkJuslHZsMkl13E-1">
          <mxGeometry x="-1020" y="898" width="750" height="832" as="geometry" />
        </mxCell>
      </root>
    </mxGraphModel>
  </diagram>
</mxfile>
